<?xml version="1.0" encoding="utf-8"?>
<!-- Generator: Avocode 2.5.4 - http://avocode.com -->
<svg height="19" width="77" xmlns:xlink="http://www.w3.org/1999/xlink" xmlns="http://www.w3.org/2000/svg" viewBox="0 0 77 19">
    <path fill="#00aced" fill-rule="evenodd" d="M 66.9 6.3 C 66.54 1.51 70.74 0 74 2.56 C 74.93 2.26 75.77 2 76.5 1.55 C 76.33 2.47 75.65 3.33 74.9 3.67 C 74.9 3.7 74.9 3.74 74.9 3.77 C 75.6 3.6 76.3 3.44 77 3.27 C 76.57 4.06 75.42 4.59 75.1 5.29 C 74.6 6.4 74.89 8.5 74.5 9.64 C 72.86 14.41 67.91 19 61 17.33 C 59.5 16.97 58.2 16.65 57.2 15.81 C 60.08 15.88 61.29 14.98 63.1 14.19 C 63.1 14.16 63.1 14.13 63.1 14.09 C 61.27 13.88 59.71 12.9 59.4 11.16 C 59.9 11.32 60.7 11.28 61.1 11.06 C 59.25 10.75 57.91 9.18 57.9 7.01 C 58.36 7.24 59.14 7.62 59.7 7.42 C 59.63 7.42 59.56 7.42 59.5 7.42 C 58.54 6.22 57.04 3.95 58.5 2.05 C 60.82 4.03 62.7 6.15 66.9 6.3 Z" />
    <path fill="#3b5998" fill-rule="evenodd" d="M 33.51 6.66 C 33.51 6.66 33.51 9.99 33.51 9.99 C 33.51 9.99 36.03 9.99 36.03 9.99 C 36.03 9.99 36.03 18.27 36.03 18.27 C 36.03 18.27 39.09 18.27 39.09 18.27 C 39.09 18.27 39.09 9.99 39.09 9.99 C 39.09 9.99 41.61 9.99 41.61 9.99 C 41.61 9.99 41.98 6.66 41.98 6.66 C 41.98 6.66 39.09 6.56 39.09 6.56 C 39.09 6.56 39.09 4.04 39.09 4.04 C 39.09 4.04 39.15 3.59 39.36 3.33 C 39.6 3.04 39.99 2.93 39.99 2.93 C 39.99 2.93 42.07 2.93 42.07 2.93 C 42.07 2.93 42.07 0 42.07 0 C 42.07 0 39.18 0 39.18 0 C 39.18 0 37.83 0.12 37.02 1.01 C 36.26 1.84 36.03 3.43 36.03 3.43 C 36.03 3.43 36.03 6.66 36.03 6.66 C 36.03 6.66 33.51 6.66 33.51 6.66 Z" />
    <path fill="#da2713" fill-rule="evenodd" d="M 10.78 0.73 C 10.78 0.78 10.78 0.84 10.78 0.89 C 10.71 0.94 10.73 0.98 10.69 1.02 C 10.67 1.02 10.65 1.02 10.63 1.02 C 10.62 1.04 10.61 1.06 10.6 1.08 C 10.58 1.08 10.56 1.08 10.54 1.08 C 10.54 1.09 10.54 1.1 10.54 1.12 C 10.5 1.13 10.46 1.14 10.41 1.15 C 10.41 1.16 10.41 1.17 10.41 1.18 C 10.34 1.19 10.27 1.2 10.2 1.21 C 10.2 1.22 10.2 1.23 10.2 1.24 C 10.16 1.24 10.12 1.24 10.08 1.24 C 10.08 1.25 10.08 1.26 10.08 1.28 C 10.03 1.28 9.98 1.28 9.92 1.28 C 9.92 1.29 9.92 1.3 9.92 1.31 C 9.85 1.31 9.78 1.31 9.71 1.31 C 9.71 1.32 9.71 1.33 9.71 1.34 C 9.64 1.34 9.57 1.34 9.5 1.34 C 9.5 1.35 9.5 1.36 9.5 1.37 C 9.42 1.37 9.34 1.37 9.25 1.37 C 9.05 1.43 8.71 1.43 8.61 1.6 C 8.58 1.63 8.6 1.6 8.58 1.66 C 8.69 1.68 8.75 1.74 8.83 1.79 C 8.85 1.79 8.87 1.79 8.89 1.79 C 8.9 1.81 8.91 1.83 8.92 1.85 C 8.94 1.85 8.96 1.85 8.98 1.85 C 8.99 1.88 9 1.9 9.01 1.92 C 9.03 1.92 9.05 1.92 9.07 1.92 C 9.08 1.94 9.09 1.96 9.1 1.98 C 9.12 1.98 9.14 1.98 9.16 1.98 C 9.2 2.03 9.24 2.09 9.28 2.14 C 9.35 2.2 9.41 2.25 9.47 2.3 C 9.47 2.33 9.47 2.35 9.47 2.37 C 9.49 2.38 9.51 2.39 9.53 2.4 C 9.54 2.43 9.55 2.46 9.56 2.5 C 9.57 2.5 9.58 2.5 9.59 2.5 C 9.6 2.54 9.61 2.58 9.62 2.62 C 9.63 2.62 9.64 2.62 9.65 2.62 C 9.67 2.69 9.69 2.75 9.71 2.82 C 9.72 2.82 9.73 2.82 9.74 2.82 C 9.79 3.01 9.84 3.2 9.89 3.39 C 9.91 3.61 9.94 3.82 9.96 4.04 C 9.96 4.14 9.96 4.25 9.96 4.36 C 10.04 4.69 9.98 5.4 9.89 5.67 C 9.88 5.77 9.87 5.87 9.86 5.96 C 9.85 5.96 9.84 5.96 9.83 5.96 C 9.83 5.99 9.83 6.03 9.83 6.06 C 9.82 6.06 9.81 6.06 9.8 6.06 C 9.8 6.09 9.8 6.12 9.8 6.16 C 9.79 6.16 9.78 6.16 9.77 6.16 C 9.77 6.19 9.77 6.22 9.77 6.25 C 9.76 6.25 9.75 6.25 9.74 6.25 C 9.73 6.29 9.72 6.34 9.71 6.38 C 9.7 6.38 9.69 6.38 9.68 6.38 C 9.68 6.41 9.68 6.44 9.68 6.48 C 9.67 6.48 9.66 6.48 9.65 6.48 C 9.65 6.5 9.65 6.52 9.65 6.54 C 9.64 6.54 9.63 6.54 9.62 6.54 C 9.62 6.56 9.62 6.58 9.62 6.6 C 9.6 6.61 9.58 6.63 9.56 6.64 C 9.55 6.68 9.54 6.72 9.53 6.76 C 9.52 6.76 9.51 6.76 9.5 6.76 C 9.49 6.8 9.48 6.83 9.47 6.86 C 9.45 6.87 9.43 6.88 9.41 6.89 C 9.41 6.91 9.41 6.94 9.41 6.96 C 9.39 6.97 9.37 6.98 9.35 6.99 C 9.34 7.02 9.33 7.05 9.32 7.08 C 9.27 7.12 9.23 7.15 9.19 7.18 C 9.19 7.2 9.19 7.22 9.19 7.25 C 9.14 7.29 9.09 7.33 9.04 7.38 C 8.95 7.48 8.86 7.59 8.76 7.69 C 8.74 7.69 8.72 7.69 8.7 7.69 C 8.68 7.73 8.66 7.76 8.64 7.79 C 8.61 7.81 8.58 7.83 8.55 7.86 C 8.55 7.87 8.55 7.88 8.55 7.89 C 8.53 7.89 8.51 7.89 8.49 7.89 C 8.47 7.92 8.45 7.95 8.43 7.98 C 8.42 7.98 8.41 7.98 8.4 7.98 C 8.39 8.01 8.38 8.03 8.37 8.05 C 8.35 8.05 8.33 8.05 8.31 8.05 C 8.27 8.1 8.23 8.16 8.18 8.21 C 8.16 8.21 8.14 8.21 8.12 8.21 C 8.09 8.25 8.06 8.29 8.03 8.34 C 7.86 8.52 7.73 8.61 7.6 8.85 C 7.59 8.85 7.58 8.85 7.57 8.85 C 7.55 8.91 7.46 9.24 7.48 9.33 C 7.62 9.83 8.01 10.15 8.37 10.42 C 8.41 10.48 8.45 10.53 8.49 10.58 C 8.51 10.58 8.53 10.58 8.55 10.58 C 8.58 10.63 8.61 10.67 8.64 10.71 C 8.66 10.71 8.68 10.71 8.7 10.71 C 8.74 10.77 8.78 10.82 8.83 10.87 C 8.85 10.87 8.87 10.87 8.89 10.87 C 8.93 10.93 8.97 10.98 9.01 11.03 C 9.03 11.03 9.05 11.03 9.07 11.03 C 9.12 11.1 9.17 11.16 9.22 11.23 C 9.25 11.24 9.28 11.25 9.32 11.26 C 9.42 11.38 9.52 11.49 9.62 11.61 C 9.68 11.66 9.74 11.72 9.8 11.77 C 9.8 11.79 9.8 11.81 9.8 11.84 C 9.86 11.89 9.92 11.94 9.99 12 C 10.27 12.41 10.51 12.85 10.69 13.38 C 10.7 13.47 10.71 13.57 10.72 13.67 C 10.85 14.11 10.82 14.89 10.69 15.33 C 10.69 15.39 10.69 15.44 10.69 15.5 C 10.68 15.5 10.67 15.5 10.66 15.5 C 10.66 15.54 10.66 15.58 10.66 15.62 C 10.65 15.62 10.64 15.62 10.63 15.62 C 10.63 15.66 10.63 15.69 10.63 15.72 C 10.62 15.72 10.61 15.72 10.6 15.72 C 10.6 15.76 10.6 15.81 10.6 15.85 C 10.59 15.85 10.58 15.85 10.57 15.85 C 10.57 15.87 10.57 15.89 10.57 15.91 C 10.56 15.91 10.55 15.91 10.54 15.91 C 10.53 15.98 10.52 16.04 10.51 16.1 C 10.5 16.1 10.49 16.1 10.48 16.1 C 10.46 16.17 10.43 16.23 10.41 16.3 C 10.4 16.3 10.39 16.3 10.38 16.3 C 10.38 16.32 10.38 16.34 10.38 16.36 C 10.37 16.36 10.36 16.36 10.35 16.36 C 10.35 16.38 10.35 16.4 10.35 16.42 C 10.34 16.42 10.33 16.42 10.32 16.42 C 10.3 16.49 10.28 16.55 10.26 16.62 C 10.24 16.63 10.22 16.64 10.2 16.65 C 10.19 16.69 10.18 16.74 10.17 16.78 C 10.14 16.8 10.11 16.82 10.08 16.84 C 10.08 16.86 10.08 16.89 10.08 16.91 C 10.06 16.92 10.04 16.93 10.02 16.94 C 10.02 16.96 10.02 16.98 10.02 17 C 9.97 17.05 9.91 17.09 9.86 17.13 C 9.86 17.15 9.86 17.17 9.86 17.19 C 9.78 17.27 9.7 17.34 9.62 17.42 C 9.59 17.46 9.56 17.51 9.53 17.55 C 9.51 17.55 9.49 17.55 9.47 17.55 C 9.44 17.59 9.41 17.63 9.38 17.68 C 9.36 17.68 9.34 17.68 9.32 17.68 C 9.29 17.71 9.27 17.74 9.25 17.77 C 9.23 17.77 9.21 17.77 9.19 17.77 C 9.17 17.81 9.15 17.84 9.13 17.87 C 9.11 17.87 9.09 17.87 9.07 17.87 C 9.06 17.89 9.05 17.91 9.04 17.93 C 9.01 17.94 8.98 17.95 8.95 17.97 C 8.95 17.98 8.95 17.99 8.95 18 C 8.91 18.01 8.87 18.02 8.83 18.03 C 8.82 18.05 8.81 18.07 8.79 18.09 C 8.77 18.09 8.75 18.09 8.73 18.09 C 8.73 18.09 8.67 18.16 8.67 18.16 C 8.65 18.16 8.63 18.16 8.61 18.16 C 8.61 18.17 8.61 18.18 8.61 18.19 C 8.59 18.19 8.57 18.19 8.55 18.19 C 8.55 18.2 8.55 18.21 8.55 18.22 C 8.53 18.22 8.51 18.22 8.49 18.22 C 8.49 18.23 8.49 18.24 8.49 18.25 C 8.43 18.28 8.37 18.3 8.31 18.32 C 8.31 18.33 8.31 18.34 8.31 18.35 C 8.28 18.35 8.25 18.35 8.22 18.35 C 8.22 18.36 8.22 18.37 8.22 18.38 C 8.2 18.38 8.17 18.38 8.15 18.38 C 8.15 18.39 8.15 18.4 8.15 18.42 C 7.84 18.52 7.52 18.63 7.21 18.74 C 7.16 18.74 7.11 18.74 7.05 18.74 C 7.05 18.75 7.05 18.76 7.05 18.77 C 7.01 18.77 6.97 18.77 6.93 18.77 C 6.93 18.78 6.93 18.79 6.93 18.8 C 6.87 18.8 6.81 18.8 6.75 18.8 C 6.75 18.81 6.75 18.82 6.75 18.83 C 6.7 18.83 6.65 18.83 6.6 18.83 C 6.6 18.84 6.6 18.85 6.6 18.86 C 6.45 18.88 6.31 18.89 6.17 18.9 C 5.82 19 5.32 18.96 4.89 18.96 C 4.68 18.96 4.4 18.98 4.25 18.93 C 4.14 18.93 4.04 18.93 3.94 18.93 C 3.94 18.92 3.94 18.91 3.94 18.9 C 3.87 18.9 3.8 18.9 3.73 18.9 C 3.73 18.89 3.73 18.88 3.73 18.86 C 3.66 18.86 3.6 18.86 3.54 18.86 C 3.54 18.85 3.54 18.84 3.54 18.83 C 3.48 18.83 3.42 18.83 3.36 18.83 C 3.2 18.78 2.99 18.73 2.84 18.67 C 2.8 18.67 2.76 18.67 2.72 18.67 C 1.95 18.39 1.17 18.02 0.73 17.39 C 0.68 17.34 0.63 17.3 0.58 17.26 C 0.58 17.24 0.58 17.22 0.58 17.19 C 0.56 17.18 0.54 17.17 0.52 17.16 C 0.51 17.13 0.5 17.1 0.49 17.07 C 0.48 17.07 0.47 17.07 0.46 17.07 C 0.46 17.05 0.46 17.02 0.46 17 C 0.44 16.99 0.42 16.98 0.4 16.97 C 0.39 16.93 0.38 16.89 0.37 16.84 C 0.36 16.84 0.35 16.84 0.34 16.84 C 0.32 16.78 0.29 16.71 0.27 16.65 C 0.26 16.65 0.25 16.65 0.24 16.65 C 0.24 16.62 0.24 16.59 0.24 16.55 C 0.23 16.55 0.22 16.55 0.21 16.55 C 0.21 16.53 0.21 16.51 0.21 16.49 C 0.2 16.49 0.19 16.49 0.18 16.49 C 0.16 16.39 0.14 16.3 0.12 16.2 C 0.11 16.2 0.1 16.2 0.09 16.2 C 0.09 16.16 0.09 16.11 0.09 16.07 C 0.08 16.07 0.07 16.07 0.06 16.07 C 0.05 15.94 0.04 15.82 0.03 15.69 C 0.02 15.69 0.01 15.69 0 15.69 C 0 15.54 0 15.39 0 15.24 C 0 14.73 0.05 14.43 0.18 14.08 C 0.18 14.05 0.18 14.02 0.18 13.99 C 0.19 13.99 0.2 13.99 0.21 13.99 C 0.21 13.96 0.21 13.94 0.21 13.92 C 0.22 13.92 0.23 13.92 0.24 13.92 C 0.27 13.83 0.3 13.73 0.34 13.63 C 0.36 13.62 0.38 13.61 0.4 13.6 C 0.41 13.56 0.42 13.51 0.43 13.47 C 0.45 13.46 0.47 13.45 0.49 13.44 C 0.49 13.42 0.49 13.4 0.49 13.38 C 0.52 13.35 0.55 13.33 0.58 13.31 C 0.58 13.29 0.58 13.27 0.58 13.25 C 0.64 13.19 0.7 13.14 0.76 13.09 C 0.87 12.97 0.97 12.85 1.07 12.73 C 1.09 12.73 1.11 12.73 1.13 12.73 C 1.16 12.69 1.19 12.65 1.22 12.61 C 1.24 12.61 1.26 12.61 1.28 12.61 C 1.29 12.58 1.3 12.56 1.31 12.54 C 1.34 12.53 1.37 12.52 1.4 12.51 C 1.4 12.5 1.4 12.49 1.4 12.48 C 1.42 12.48 1.45 12.48 1.47 12.48 C 1.48 12.46 1.49 12.43 1.5 12.41 C 1.54 12.4 1.58 12.39 1.62 12.38 C 2.68 11.68 4.25 11.4 5.96 11.39 C 5.93 11.14 5.79 10.76 5.65 10.65 C 5.63 10.65 5.61 10.65 5.59 10.65 C 5.56 10.61 5.53 10.56 5.5 10.52 C 5.48 10.52 5.46 10.52 5.44 10.52 C 5.42 10.51 5.32 10.34 5.31 10.33 C 5.31 9.92 5.31 9.51 5.31 9.11 C 4.24 9.12 3.5 9.01 2.81 8.63 C 2.79 8.63 2.77 8.63 2.75 8.63 C 2.75 8.61 2.75 8.6 2.75 8.59 C 2.73 8.59 2.71 8.59 2.69 8.59 C 2.69 8.59 2.63 8.53 2.63 8.53 C 2.61 8.53 2.59 8.53 2.57 8.53 C 2.57 8.52 2.57 8.51 2.57 8.5 C 2.53 8.49 2.5 8.48 2.47 8.47 C 2.46 8.44 2.45 8.42 2.44 8.4 C 2.42 8.4 2.4 8.4 2.38 8.4 C 2.37 8.38 2.36 8.36 2.35 8.34 C 2.33 8.34 2.31 8.34 2.29 8.34 C 2.27 8.31 2.25 8.27 2.23 8.24 C 2.21 8.24 2.19 8.24 2.17 8.24 C 2.08 8.13 1.99 8.03 1.89 7.92 C 1.84 7.88 1.79 7.83 1.74 7.79 C 1.74 7.77 1.74 7.75 1.74 7.73 C 1.71 7.71 1.68 7.68 1.65 7.66 C 1.65 7.64 1.65 7.62 1.65 7.6 C 1.63 7.59 1.61 7.58 1.59 7.57 C 1.58 7.53 1.57 7.5 1.56 7.47 C 1.55 7.47 1.54 7.47 1.53 7.47 C 1.51 7.41 1.49 7.34 1.47 7.28 C 1.45 7.27 1.42 7.26 1.4 7.25 C 1.4 7.22 1.4 7.2 1.4 7.18 C 1.39 7.18 1.38 7.18 1.37 7.18 C 1.37 7.15 1.37 7.12 1.37 7.08 C 1.36 7.08 1.35 7.08 1.34 7.08 C 1.33 7.04 1.32 7 1.31 6.96 C 1.3 6.96 1.29 6.96 1.28 6.96 C 1.27 6.9 1.26 6.85 1.25 6.8 C 1.24 6.8 1.23 6.8 1.22 6.8 C 1.22 6.75 1.22 6.71 1.22 6.67 C 1.21 6.67 1.2 6.67 1.19 6.67 C 1.19 6.64 1.19 6.6 1.19 6.57 C 1.18 6.57 1.17 6.57 1.16 6.57 C 1.16 6.53 1.16 6.49 1.16 6.44 C 1.15 6.44 1.14 6.44 1.13 6.44 C 1.13 6.4 1.13 6.36 1.13 6.32 C 1.12 6.32 1.11 6.32 1.1 6.32 C 1.1 6.26 1.1 6.21 1.1 6.16 C 1.09 6.16 1.08 6.16 1.07 6.16 C 1.06 5.98 1.05 5.81 1.04 5.64 C 0.93 5.23 1.03 4.52 1.13 4.2 C 1.15 4.07 1.17 3.94 1.19 3.81 C 1.2 3.81 1.21 3.81 1.22 3.81 C 1.22 3.79 1.22 3.77 1.22 3.75 C 1.23 3.75 1.24 3.75 1.25 3.75 C 1.26 3.68 1.27 3.62 1.28 3.56 C 1.29 3.56 1.3 3.56 1.31 3.56 C 1.32 3.51 1.33 3.47 1.34 3.43 C 1.35 3.43 1.36 3.43 1.37 3.43 C 1.4 3.33 1.43 3.23 1.47 3.14 C 1.49 3.13 1.51 3.12 1.53 3.1 C 1.54 3.06 1.55 3.02 1.56 2.98 C 1.58 2.97 1.6 2.96 1.62 2.94 C 1.62 2.92 1.62 2.9 1.62 2.88 C 1.63 2.88 1.64 2.88 1.65 2.88 C 1.66 2.85 1.67 2.82 1.68 2.78 C 1.7 2.77 1.72 2.76 1.74 2.75 C 1.74 2.73 1.74 2.71 1.74 2.69 C 1.78 2.66 1.82 2.62 1.86 2.59 C 1.86 2.57 1.86 2.55 1.86 2.53 C 1.91 2.49 1.97 2.44 2.02 2.4 C 2.11 2.29 2.2 2.19 2.29 2.08 C 2.31 2.08 2.33 2.08 2.35 2.08 C 2.38 2.03 2.41 1.99 2.44 1.95 C 2.46 1.95 2.48 1.95 2.5 1.95 C 2.52 1.92 2.54 1.89 2.57 1.85 C 2.59 1.85 2.61 1.85 2.63 1.85 C 2.64 1.83 2.65 1.81 2.66 1.79 C 2.69 1.78 2.72 1.77 2.75 1.76 C 2.75 1.75 2.75 1.74 2.75 1.73 C 2.77 1.73 2.79 1.73 2.81 1.73 C 2.82 1.7 2.83 1.68 2.84 1.66 C 2.87 1.65 2.9 1.64 2.93 1.63 C 2.93 1.62 2.93 1.61 2.93 1.6 C 2.95 1.6 2.97 1.6 2.99 1.6 C 2.99 1.6 3.05 1.53 3.05 1.53 C 3.07 1.53 3.1 1.53 3.12 1.53 C 3.12 1.52 3.12 1.51 3.12 1.5 C 3.13 1.5 3.16 1.5 3.18 1.5 C 3.18 1.49 3.18 1.48 3.18 1.47 C 3.2 1.47 3.22 1.47 3.24 1.47 C 3.24 1.46 3.24 1.45 3.24 1.44 C 3.26 1.44 3.28 1.44 3.3 1.44 C 3.3 1.43 3.3 1.42 3.3 1.4 C 3.32 1.4 3.34 1.4 3.36 1.4 C 3.36 1.39 3.36 1.38 3.36 1.37 C 3.38 1.37 3.4 1.37 3.42 1.37 C 3.42 1.36 3.42 1.35 3.42 1.34 C 3.48 1.32 3.54 1.3 3.6 1.28 C 3.6 1.26 3.6 1.25 3.6 1.24 C 3.63 1.24 3.66 1.24 3.7 1.24 C 3.7 1.23 3.7 1.22 3.7 1.21 C 3.72 1.21 3.74 1.21 3.76 1.21 C 3.76 1.2 3.76 1.19 3.76 1.18 C 3.82 1.17 3.88 1.16 3.94 1.15 C 3.94 1.14 3.94 1.13 3.94 1.12 C 3.97 1.12 4 1.12 4.03 1.12 C 4.03 1.1 4.03 1.09 4.03 1.08 C 4.06 1.08 4.09 1.08 4.12 1.08 C 4.12 1.07 4.12 1.06 4.12 1.05 C 4.15 1.05 4.18 1.05 4.21 1.05 C 4.21 1.04 4.21 1.03 4.21 1.02 C 4.25 1.02 4.28 1.02 4.31 1.02 C 4.31 1.01 4.31 1 4.31 0.99 C 4.35 0.99 4.39 0.99 4.43 0.99 C 4.43 0.98 4.43 0.97 4.43 0.95 C 4.47 0.95 4.51 0.95 4.55 0.95 C 4.55 0.94 4.55 0.93 4.55 0.92 C 4.59 0.92 4.63 0.92 4.67 0.92 C 4.67 0.91 4.67 0.9 4.67 0.89 C 4.76 0.88 4.86 0.87 4.95 0.86 C 4.95 0.85 4.95 0.84 4.95 0.83 C 5.01 0.83 5.07 0.83 5.13 0.83 C 5.13 0.82 5.13 0.81 5.13 0.8 C 5.2 0.8 5.27 0.8 5.34 0.8 C 5.34 0.78 5.34 0.77 5.34 0.76 C 5.43 0.76 5.51 0.76 5.59 0.76 C 5.59 0.75 5.59 0.74 5.59 0.73 C 7.32 0.73 9.05 0.73 10.78 0.73 Z M 15.51 0.73 C 15.85 0.73 16.19 0.73 16.52 0.73 C 16.52 1.91 16.52 3.08 16.52 4.26 C 17.64 4.26 18.76 4.26 19.88 4.26 C 19.96 4.49 19.91 5.02 19.91 5.32 C 18.78 5.32 17.65 5.32 16.52 5.32 C 16.52 6.5 16.52 7.67 16.52 8.85 C 16.3 8.94 15.8 8.88 15.51 8.88 C 15.51 7.69 15.51 6.51 15.51 5.32 C 14.38 5.32 13.25 5.32 12.12 5.32 C 12.12 4.98 12.12 4.64 12.12 4.29 C 12.36 4.2 12.89 4.26 13.19 4.26 C 13.97 4.26 14.74 4.26 15.51 4.26 C 15.51 3.08 15.51 1.91 15.51 0.73 Z M 4.86 1.63 C 4.79 1.69 4.68 1.66 4.58 1.69 C 4.58 1.7 4.58 1.72 4.58 1.73 C 4.55 1.73 4.52 1.73 4.49 1.73 C 4.49 1.74 4.49 1.75 4.49 1.76 C 4.43 1.78 4.37 1.8 4.31 1.82 C 4.31 1.83 4.31 1.84 4.31 1.85 C 4.26 1.86 4.23 1.88 4.18 1.89 C 4.17 1.91 4.16 1.93 4.15 1.95 C 4.13 1.95 4.11 1.95 4.09 1.95 C 4.07 1.98 4.05 2.01 4.03 2.05 C 4.01 2.05 3.99 2.05 3.97 2.05 C 3.92 2.11 3.87 2.17 3.82 2.24 C 3.8 2.25 3.78 2.26 3.76 2.27 C 3.76 2.29 3.76 2.31 3.76 2.33 C 3.73 2.36 3.7 2.38 3.66 2.4 C 3.66 2.42 3.66 2.44 3.66 2.46 C 3.64 2.47 3.62 2.49 3.6 2.5 C 3.6 2.52 3.6 2.54 3.6 2.56 C 3.58 2.57 3.56 2.58 3.54 2.59 C 3.53 2.64 3.52 2.68 3.51 2.72 C 3.5 2.72 3.49 2.72 3.48 2.72 C 3.48 2.74 3.48 2.76 3.48 2.78 C 3.47 2.78 3.46 2.78 3.45 2.78 C 3.43 2.85 3.41 2.91 3.39 2.98 C 3.38 2.98 3.37 2.98 3.36 2.98 C 3.36 3.01 3.36 3.04 3.36 3.07 C 3.35 3.07 3.34 3.07 3.33 3.07 C 3.33 3.1 3.33 3.14 3.33 3.17 C 3.32 3.17 3.31 3.17 3.3 3.17 C 3.3 3.2 3.3 3.23 3.3 3.27 C 3.29 3.27 3.28 3.27 3.27 3.27 C 3.27 3.31 3.27 3.35 3.27 3.39 C 3.26 3.39 3.25 3.39 3.24 3.39 C 3.24 3.44 3.24 3.48 3.24 3.52 C 3.23 3.52 3.22 3.52 3.21 3.52 C 3.21 3.59 3.21 3.65 3.21 3.72 C 3.12 4.03 3.12 4.61 3.21 4.93 C 3.21 5 3.21 5.06 3.21 5.13 C 3.22 5.13 3.23 5.13 3.24 5.13 C 3.24 5.18 3.24 5.24 3.24 5.29 C 3.25 5.29 3.26 5.29 3.27 5.29 C 3.27 5.33 3.27 5.37 3.27 5.42 C 3.28 5.42 3.29 5.42 3.3 5.42 C 3.3 5.46 3.3 5.5 3.3 5.55 C 3.31 5.55 3.32 5.55 3.33 5.55 C 3.33 5.58 3.33 5.61 3.33 5.64 C 3.34 5.64 3.35 5.64 3.36 5.64 C 3.36 5.67 3.36 5.7 3.36 5.74 C 3.37 5.74 3.38 5.74 3.39 5.74 C 3.39 5.77 3.39 5.8 3.39 5.83 C 3.4 5.83 3.41 5.83 3.42 5.83 C 3.42 5.87 3.42 5.9 3.42 5.93 C 3.43 5.93 3.44 5.93 3.45 5.93 C 3.45 5.95 3.45 5.97 3.45 5.99 C 3.46 5.99 3.47 5.99 3.48 5.99 C 3.48 6.03 3.48 6.06 3.48 6.09 C 3.49 6.09 3.5 6.09 3.51 6.09 C 3.53 6.16 3.55 6.22 3.57 6.28 C 3.58 6.28 3.59 6.28 3.6 6.28 C 3.6 6.31 3.6 6.33 3.6 6.35 C 3.61 6.35 3.62 6.35 3.63 6.35 C 3.65 6.41 3.67 6.48 3.7 6.54 C 3.71 6.54 3.72 6.54 3.73 6.54 C 3.74 6.57 3.75 6.6 3.76 6.64 C 3.78 6.65 3.8 6.66 3.82 6.67 C 3.83 6.71 3.84 6.75 3.85 6.8 C 3.87 6.81 3.89 6.82 3.91 6.83 C 3.92 6.86 3.93 6.89 3.94 6.92 C 3.97 6.95 4 6.97 4.03 6.99 C 4.03 7.01 4.03 7.03 4.03 7.05 C 4.09 7.11 4.15 7.16 4.21 7.21 C 4.21 7.24 4.21 7.26 4.21 7.28 C 4.25 7.31 4.3 7.34 4.34 7.38 C 4.34 7.39 4.34 7.4 4.34 7.41 C 4.36 7.41 4.38 7.41 4.4 7.41 C 4.44 7.46 4.48 7.51 4.52 7.57 C 4.54 7.57 4.56 7.57 4.58 7.57 C 4.6 7.6 4.62 7.63 4.64 7.66 C 4.66 7.66 4.68 7.66 4.7 7.66 C 4.71 7.68 4.72 7.71 4.73 7.73 C 4.76 7.74 4.79 7.75 4.83 7.76 C 4.83 7.77 4.83 7.78 4.83 7.79 C 4.87 7.8 4.91 7.81 4.95 7.82 C 4.95 7.83 4.95 7.84 4.95 7.86 C 5.01 7.88 5.07 7.9 5.13 7.92 C 5.13 7.93 5.13 7.94 5.13 7.95 C 5.22 7.97 5.31 8 5.4 8.02 C 5.4 8.03 5.4 8.04 5.4 8.05 C 5.46 8.05 5.51 8.05 5.56 8.05 C 5.64 8.08 6.01 8.12 6.14 8.08 C 6.88 7.84 7.28 7.38 7.57 6.67 C 7.57 6.64 7.57 6.6 7.57 6.57 C 7.58 6.57 7.59 6.57 7.6 6.57 C 7.6 6.54 7.6 6.51 7.6 6.48 C 7.62 6.48 7.63 6.48 7.63 6.48 C 7.63 6.43 7.63 6.39 7.63 6.35 C 7.64 6.35 7.65 6.35 7.66 6.35 C 7.66 6.31 7.66 6.26 7.66 6.22 C 7.68 6.22 7.69 6.22 7.7 6.22 C 7.7 6.16 7.7 6.09 7.7 6.03 C 7.71 6.03 7.72 6.03 7.73 6.03 C 7.74 5.69 7.75 5.36 7.76 5.03 C 7.75 5.03 7.74 5.03 7.73 5.03 C 7.71 4.83 7.69 4.63 7.66 4.42 C 7.65 4.42 7.64 4.42 7.63 4.42 C 7.63 4.38 7.63 4.34 7.63 4.29 C 7.63 4.29 7.62 4.29 7.6 4.29 C 7.6 4.26 7.6 4.23 7.6 4.2 C 7.59 4.2 7.58 4.2 7.57 4.2 C 7.57 4.17 7.57 4.13 7.57 4.1 C 7.56 4.1 7.55 4.1 7.54 4.1 C 7.54 4.07 7.54 4.04 7.54 4 C 7.53 4 7.52 4 7.51 4 C 7.51 3.97 7.51 3.94 7.51 3.91 C 7.5 3.91 7.49 3.91 7.48 3.91 C 7.47 3.84 7.46 3.78 7.45 3.72 C 7.44 3.72 7.43 3.72 7.42 3.72 C 7.4 3.65 7.38 3.59 7.36 3.52 C 7.35 3.52 7.34 3.52 7.33 3.52 C 7.33 3.5 7.33 3.48 7.33 3.46 C 7.32 3.46 7.31 3.46 7.3 3.46 C 7.3 3.44 7.3 3.42 7.3 3.39 C 7.29 3.39 7.28 3.39 7.27 3.39 C 7.27 3.37 7.27 3.35 7.27 3.33 C 7.26 3.33 7.25 3.33 7.24 3.33 C 7.22 3.27 7.2 3.2 7.18 3.14 C 7.16 3.13 7.14 3.12 7.12 3.1 C 7.12 3.08 7.12 3.06 7.12 3.04 C 7.1 3.03 7.08 3.02 7.05 3.01 C 7.05 2.99 7.05 2.97 7.05 2.94 C 7.03 2.93 7.01 2.92 6.99 2.91 C 6.99 2.89 6.99 2.87 6.99 2.85 C 6.97 2.84 6.95 2.83 6.93 2.82 C 6.93 2.8 6.93 2.77 6.93 2.75 C 6.89 2.72 6.85 2.69 6.81 2.66 C 6.81 2.64 6.81 2.61 6.81 2.59 C 6.72 2.51 6.63 2.42 6.53 2.33 C 6.5 2.29 6.47 2.25 6.44 2.21 C 6.42 2.21 6.4 2.21 6.38 2.21 C 6.36 2.17 6.34 2.14 6.32 2.11 C 6.3 2.11 6.28 2.11 6.26 2.11 C 6.24 2.08 6.22 2.05 6.2 2.01 C 6.18 2.01 6.16 2.01 6.14 2.01 C 5.78 1.76 5.47 1.63 4.86 1.63 Z M 5.62 12.12 C 5.56 12.18 5.39 12.15 5.28 12.16 C 5.12 12.18 4.96 12.2 4.79 12.22 C 4.47 12.33 4.14 12.43 3.82 12.54 C 3.82 12.55 3.82 12.56 3.82 12.57 C 3.76 12.59 3.7 12.62 3.63 12.64 C 3.63 12.65 3.63 12.66 3.63 12.67 C 3.59 12.68 3.55 12.69 3.51 12.7 C 3.5 12.72 3.49 12.75 3.48 12.77 C 3.44 12.78 3.4 12.79 3.36 12.8 C 3.35 12.82 3.34 12.84 3.33 12.86 C 3.29 12.87 3.25 12.88 3.21 12.9 C 3.19 12.93 3.17 12.96 3.15 12.99 C 3.13 12.99 3.11 12.99 3.09 12.99 C 3.07 13.01 3.06 13.03 3.05 13.06 C 3.03 13.06 3.01 13.06 2.99 13.06 C 2.95 13.11 2.91 13.16 2.87 13.22 C 2.85 13.22 2.83 13.22 2.81 13.22 C 2.76 13.28 2.71 13.34 2.66 13.41 C 2.64 13.42 2.62 13.43 2.6 13.44 C 2.6 13.46 2.6 13.48 2.6 13.5 C 2.54 13.55 2.49 13.59 2.44 13.63 C 2.44 13.66 2.44 13.68 2.44 13.7 C 2.41 13.72 2.38 13.74 2.35 13.76 C 2.35 13.78 2.35 13.8 2.35 13.83 C 2.33 13.84 2.31 13.85 2.29 13.86 C 2.28 13.9 2.27 13.94 2.26 13.99 C 2.25 13.99 2.24 13.99 2.23 13.99 C 2.23 14.01 2.23 14.03 2.23 14.05 C 2.22 14.05 2.21 14.05 2.2 14.05 C 2.18 14.11 2.16 14.18 2.14 14.24 C 2.13 14.24 2.12 14.24 2.11 14.24 C 2.1 14.31 2.09 14.37 2.08 14.43 C 2.07 14.43 2.06 14.43 2.05 14.43 C 2.05 14.47 2.05 14.5 2.05 14.53 C 2.04 14.53 2.03 14.53 2.02 14.53 C 1.99 14.62 1.95 15.27 1.99 15.4 C 2 15.4 2 15.4 2.02 15.4 C 2.02 15.45 2.02 15.5 2.02 15.56 C 2.03 15.56 2.04 15.56 2.05 15.56 C 2.05 15.59 2.05 15.62 2.05 15.66 C 2.06 15.66 2.07 15.66 2.08 15.66 C 2.08 15.69 2.08 15.72 2.08 15.75 C 2.09 15.75 2.1 15.75 2.11 15.75 C 2.11 15.78 2.11 15.82 2.11 15.85 C 2.12 15.85 2.13 15.85 2.14 15.85 C 2.15 15.89 2.16 15.93 2.17 15.98 C 2.18 15.98 2.19 15.98 2.2 15.98 C 2.21 16.02 2.22 16.06 2.23 16.1 C 2.25 16.11 2.27 16.13 2.29 16.14 C 2.3 16.18 2.31 16.22 2.32 16.26 C 2.35 16.29 2.38 16.31 2.41 16.33 C 2.41 16.35 2.41 16.37 2.41 16.39 C 2.47 16.45 2.53 16.5 2.6 16.55 C 2.6 16.58 2.6 16.6 2.6 16.62 C 2.6 16.62 2.66 16.68 2.66 16.68 C 2.68 16.68 2.7 16.68 2.72 16.68 C 2.77 16.75 2.82 16.81 2.87 16.87 C 2.89 16.87 2.91 16.87 2.93 16.87 C 2.95 16.91 2.97 16.94 2.99 16.97 C 3.01 16.97 3.03 16.97 3.05 16.97 C 3.06 16.99 3.07 17.01 3.09 17.03 C 3.11 17.03 3.13 17.03 3.15 17.03 C 3.16 17.06 3.17 17.08 3.18 17.1 C 3.24 17.12 3.3 17.14 3.36 17.16 C 3.37 17.18 3.38 17.21 3.39 17.23 C 3.41 17.23 3.43 17.23 3.45 17.23 C 3.45 17.24 3.45 17.25 3.45 17.26 C 3.47 17.26 3.49 17.26 3.51 17.26 C 3.51 17.27 3.51 17.28 3.51 17.29 C 3.54 17.29 3.57 17.29 3.6 17.29 C 3.6 17.3 3.6 17.31 3.6 17.32 C 3.64 17.33 3.68 17.34 3.73 17.36 C 3.73 17.37 3.73 17.38 3.73 17.39 C 3.79 17.4 3.85 17.41 3.91 17.42 C 3.91 17.43 3.91 17.44 3.91 17.45 C 3.93 17.45 3.95 17.45 3.97 17.45 C 3.97 17.46 3.97 17.47 3.97 17.48 C 4 17.48 4.03 17.48 4.06 17.48 C 4.06 17.5 4.06 17.51 4.06 17.52 C 4.1 17.52 4.14 17.52 4.18 17.52 C 4.18 17.53 4.18 17.54 4.18 17.55 C 4.23 17.55 4.26 17.55 4.31 17.55 C 4.31 17.56 4.31 17.57 4.31 17.58 C 4.35 17.58 4.39 17.58 4.43 17.58 C 4.43 17.59 4.43 17.6 4.43 17.61 C 4.48 17.61 4.53 17.61 4.58 17.61 C 4.58 17.62 4.58 17.63 4.58 17.65 C 4.64 17.65 4.7 17.65 4.76 17.65 C 5.17 17.77 5.95 17.73 6.32 17.61 C 6.37 17.61 6.42 17.61 6.47 17.61 C 6.47 17.6 6.47 17.59 6.47 17.58 C 6.51 17.58 6.56 17.58 6.6 17.58 C 6.6 17.57 6.6 17.56 6.6 17.55 C 6.64 17.55 6.68 17.55 6.72 17.55 C 6.72 17.54 6.72 17.53 6.72 17.52 C 6.76 17.52 6.8 17.52 6.84 17.52 C 6.84 17.51 6.84 17.5 6.84 17.48 C 6.87 17.48 6.9 17.48 6.93 17.48 C 6.93 17.47 6.93 17.46 6.93 17.45 C 6.96 17.45 6.99 17.45 7.02 17.45 C 7.02 17.44 7.02 17.43 7.02 17.42 C 7.05 17.42 7.09 17.42 7.12 17.42 C 7.12 17.41 7.12 17.4 7.12 17.39 C 7.17 17.38 7.22 17.37 7.27 17.36 C 7.27 17.34 7.27 17.33 7.27 17.32 C 7.31 17.31 7.35 17.3 7.39 17.29 C 7.39 17.28 7.39 17.27 7.39 17.26 C 7.42 17.26 7.45 17.26 7.48 17.26 C 7.48 17.25 7.48 17.24 7.48 17.23 C 7.52 17.22 7.56 17.21 7.6 17.19 C 7.6 17.18 7.6 17.17 7.6 17.16 C 7.64 17.15 7.69 17.14 7.73 17.13 C 7.74 17.11 7.75 17.09 7.76 17.07 C 7.8 17.06 7.84 17.05 7.88 17.03 C 7.89 17.01 7.9 16.99 7.91 16.97 C 7.93 16.97 7.95 16.97 7.97 16.97 C 7.97 16.96 7.97 16.95 7.97 16.94 C 8 16.93 8.03 16.92 8.06 16.91 C 8.07 16.89 8.08 16.86 8.09 16.84 C 8.11 16.84 8.13 16.84 8.15 16.84 C 8.18 16.8 8.22 16.76 8.25 16.71 C 8.27 16.71 8.29 16.71 8.31 16.71 C 8.37 16.64 8.43 16.56 8.49 16.49 C 8.55 16.44 8.61 16.38 8.67 16.33 C 8.67 16.31 8.67 16.29 8.67 16.26 C 8.7 16.24 8.73 16.22 8.76 16.2 C 8.76 16.18 8.76 16.16 8.76 16.14 C 8.79 16.11 8.83 16.09 8.86 16.07 C 8.86 16.05 8.86 16.03 8.86 16.01 C 8.88 16 8.9 15.99 8.92 15.98 C 8.93 15.93 8.94 15.89 8.95 15.85 C 8.96 15.85 8.97 15.85 8.98 15.85 C 8.98 15.83 8.98 15.81 8.98 15.78 C 8.99 15.78 9 15.78 9.01 15.78 C 9.03 15.72 9.05 15.66 9.07 15.59 C 9.08 15.59 9.09 15.59 9.1 15.59 C 9.11 15.53 9.12 15.46 9.13 15.4 C 9.14 15.4 9.15 15.4 9.16 15.4 C 9.17 15.29 9.18 15.18 9.19 15.08 C 9.2 15.08 9.21 15.08 9.22 15.08 C 9.22 14.9 9.22 14.71 9.22 14.53 C 9.21 14.53 9.2 14.53 9.19 14.53 C 9.19 14.48 9.19 14.42 9.19 14.37 C 9.18 14.37 9.17 14.37 9.16 14.37 C 9.16 14.33 9.16 14.29 9.16 14.24 C 9.15 14.24 9.14 14.24 9.13 14.24 C 9.13 14.21 9.13 14.18 9.13 14.15 C 9.12 14.15 9.11 14.15 9.1 14.15 C 9.1 14.11 9.1 14.08 9.1 14.05 C 9.09 14.05 9.08 14.05 9.07 14.05 C 9.07 14.03 9.07 14.01 9.07 13.99 C 9.06 13.99 9.05 13.99 9.04 13.99 C 9.03 13.93 9.02 13.88 9.01 13.83 C 8.4 12.77 7.23 12.13 5.62 12.12 Z" />
</svg>